<svg xmlns="http://www.w3.org/2000/svg" height="40" viewBox="0 96 960 960" width="40"><path fill="#FF7F52" d="M480 982.696q-27.145 0-49.007-12.674-21.863-12.674-30.5-35.645h-9.334q-28.833-1.355-49.344-22.821-20.511-21.465-20.511-50.222V722.095q-63.905-42.76-100.953-109.428Q183.304 545.998 183.304 466q0-123.577 86.533-210.216 86.533-86.639 210.125-86.639t210.243 86.639q86.65 86.639 86.65 210.216 0 80.623-37.127 147.007-37.127 66.385-100.873 109.088v139.239q0 28.757-20.591 50.222-20.59 21.466-49.264 22.821h-9.333q-8.797 22.971-30.779 35.645-21.982 12.674-48.888 12.674Zm-82.942-121.362h165.884V820H397.058v41.334Zm0-81.334h165.884v-39.333H397.058V780ZM386 671.609h67.073V547.225L361.848 456l36.819-36.819L480 500.515l81.333-81.334L598.152 456l-91.225 91.225v124.384H574q57.283-27.333 92.113-82.91 34.829-55.578 34.829-122.636 0-93.027-63.96-157.016-63.96-63.989-156.953-63.989T323.047 309.03q-63.989 63.972-63.989 156.982 0 67.046 34.829 122.655 34.83 55.609 92.113 82.942Zm94-171.094ZM480 458Z"/></svg>