<svg xmlns="http://www.w3.org/2000/svg" height="40" viewBox="0 96 960 960" width="40"><path fill="#FF7F52" d="M439.594 985.805q-29.762 0-51.562-21.653-21.8-21.653-21.8-51.869V729.362h-135.58q-30.994 0-53.374-22.38-22.38-22.38-22.38-53.373V366.246q0-66.398 45.931-113.225 45.93-46.826 112.627-46.826h491.805v447.414q0 30.993-22.427 53.373t-53.486 22.38H593.927v182.921q0 30.216-21.902 51.869-21.903 21.653-51.619 21.653h-80.812ZM230.652 497.609h498.696V282.108h-50.667V444.42h-66.666V282.108h-60.667v83.334h-66.667v-83.334H313.456q-36.159 0-59.482 24.243-23.322 24.243-23.322 59.895v131.363Zm0 156h498.696v-89.334H230.652v89.334Zm0-89.334v89.334-89.334Z"/></svg>